<?xml version="1.0" encoding="UTF-8"?>
<svg version="1.1" xmlns="http://www.w3.org/2000/svg" width="150" height="150">
<path d="M0 0 C13.30135975 11.29762928 22.56955215 25.43791655 24.16015625 43.11328125 C24.97564226 59.63841276 20.08754526 75.41012246 9.375 88.1484375 C-2.50656685 100.75533256 -17.50635428 109.10427771 -34.96508789 109.83959961 C-52.72168538 110.07049429 -68.56299182 104.13245267 -81.4375 91.6875 C-89.52038386 83.48456039 -95.27689441 73.41096879 -98.1875 62.25 C-98.579375 61.0125 -98.97125 59.775 -99.375 58.5 C-102.7301171 43.96115923 -98.59769206 29.0492775 -91.29296875 16.38671875 C-81.52975318 1.84152005 -67.8714913 -7.42657843 -50.9375 -12.0625 C-32.76382984 -15.48652481 -14.67035341 -11.20651997 0 0 Z " fill="#CE4F07" transform="translate(113.1875,26.75)"/>
<path d="M0 0 C9.70069422 8.2393717 15.67064126 16.77588436 20.8125 28.25 C19.8225 28.745 19.8225 28.745 18.8125 29.25 C18.3845382 31.11309092 18.3845382 31.11309092 18.25 33.25 C17.90839041 37.15410959 17.90839041 37.15410959 16.8125 38.25 C15.14632885 38.29063832 13.47861905 38.292721 11.8125 38.25 C11.8125 38.91 11.8125 39.57 11.8125 40.25 C11.1525 40.25 10.4925 40.25 9.8125 40.25 C9.1525 37.94 8.4925 35.63 7.8125 33.25 C5.48174071 34.20865509 5.48174071 34.20865509 3.8125 37.25 C3.4825 36.26 3.1525 35.27 2.8125 34.25 C1.86375 34.29125 0.915 34.3325 -0.0625 34.375 C-3.1875 34.25 -3.1875 34.25 -5.1875 32.25 C-6.1775 32.25 -7.1675 32.25 -8.1875 32.25 C-9.546875 30.7109375 -9.546875 30.7109375 -10.9375 28.625 C-15.6446123 22.05828778 -20.60706889 18.03464816 -28.1875 15.25 C-28.1875 14.59 -28.1875 13.93 -28.1875 13.25 C-31.53689881 11.22441119 -34.05712551 11.03261013 -37.9375 11.125 C-38.92234375 11.14304687 -39.9071875 11.16109375 -40.921875 11.1796875 C-42.04335937 11.21449219 -42.04335937 11.21449219 -43.1875 11.25 C-43.42339844 11.86359375 -43.65929687 12.4771875 -43.90234375 13.109375 C-45.52493097 15.81204308 -46.86856618 16.29151132 -49.75 17.5 C-56.42940503 20.62157971 -62.08000777 25.08876165 -66.1875 31.25 C-66.8475 31.25 -67.5075 31.25 -68.1875 31.25 C-68.1875 31.91 -68.1875 32.57 -68.1875 33.25 C-72.90538188 34.02026643 -77.40497591 34.44130096 -82.1875 34.25 C-82.6825 33.755 -82.6825 33.755 -83.1875 33.25 C-83.8475 34.57 -84.5075 35.89 -85.1875 37.25 C-86.5075 35.93 -87.8275 34.61 -89.1875 33.25 C-89.620625 34.013125 -90.05375 34.77625 -90.5 35.5625 C-92.1875 38.25 -92.1875 38.25 -93.875 39.625 C-96.0361212 42.30067386 -95.42345047 44.94669349 -95.1875 48.25 C-94.8575 49.24 -94.5275 50.23 -94.1875 51.25 C-88.2475 50.59 -82.3075 49.93 -76.1875 49.25 C-76.1875 47.6 -76.1875 45.95 -76.1875 44.25 C-75.5275 44.25 -74.8675 44.25 -74.1875 44.25 C-73.6925 51.18 -73.6925 51.18 -73.1875 58.25 C-76.1575 59.24 -76.1575 59.24 -79.1875 60.25 C-77.2075 60.58 -75.2275 60.91 -73.1875 61.25 C-73.1875 60.59 -73.1875 59.93 -73.1875 59.25 C-70.64129062 59.6137442 -69.50569607 59.82966691 -67.921875 61.921875 C-67.59703125 62.60765625 -67.2721875 63.2934375 -66.9375 64 C-66.60234375 64.67546875 -66.2671875 65.3509375 -65.921875 66.046875 C-65.08536552 68.55640343 -65.05884649 70.62179265 -65.1875 73.25 C-65.93515625 73.62511719 -66.6828125 74.00023438 -67.453125 74.38671875 C-74.82624351 78.10756906 -74.82624351 78.10756906 -80.1875 84.25 C-79.878125 84.86875 -79.56875 85.4875 -79.25 86.125 C-78.5625 87.5 -77.875 88.875 -77.1875 90.25 C-79.1675 90.745 -79.1675 90.745 -81.1875 91.25 C-92.9512783 79.98680801 -99.97268031 64.18619044 -100.625 47.9375 C-100.13812552 30.95775249 -92.91237496 15.84057867 -81.07421875 3.91015625 C-58.37884146 -17.0039871 -24.46158172 -18.68593048 0 0 Z " fill="#D65906" transform="translate(113.1875,26.75)"/>
<path d="M0 0 C15.25450097 1.64304023 28.10314009 9.26143119 38 21 C42.0841676 26.51976786 45.18944382 31.07987664 46 38 C41.87909628 39.81734245 37.70810684 40.85467756 33.3125 41.75 C32.63638672 41.90082031 31.96027344 42.05164062 31.26367188 42.20703125 C29.52545595 42.56332228 27.76205961 42.79147224 26 43 C25.34 42.34 24.68 41.68 24 41 C23.01 41 22.02 41 21 41 C19.640625 39.4609375 19.640625 39.4609375 18.25 37.375 C14.33054918 31.86631912 9.45954351 27.93087133 4 24 C4.99 24 5.98 24 7 24 C5.694761 21.38952199 4.64173426 21.31933577 1.9375 20.375 C1.20402344 20.11460938 0.47054687 19.85421875 -0.28515625 19.5859375 C-0.85105469 19.39257812 -1.41695313 19.19921875 -2 19 C-1.34 18.34 -0.68 17.68 0 17 C0.14517744 14.0906442 0.18630796 11.280054 0.125 8.375 C0.11597656 7.57320312 0.10695313 6.77140625 0.09765625 5.9453125 C0.07406223 3.96341477 0.03819065 1.98167019 0 0 Z " fill="#F3E09C" transform="translate(84,18)"/>
<path d="M0 0 C2.62834278 0 5.08186701 -0.19789762 7.6875 -0.5 C8.49574219 -0.5928125 9.30398437 -0.685625 10.13671875 -0.78125 C11.05904297 -0.88953125 11.05904297 -0.88953125 12 -1 C12.06058594 -0.21496094 12.12117188 0.57007812 12.18359375 1.37890625 C12.62820214 6.95361148 13.12124643 12.47640616 14 18 C13.01 18.495 13.01 18.495 12 19 C12 19.99 12 20.98 12 22 C10.96875 22.4125 9.9375 22.825 8.875 23.25 C1.15024067 26.62474456 -3.64237927 31.63612563 -9 38 C-10.5 36.625 -10.5 36.625 -12 35 C-12 34.34 -12 33.68 -12 33 C-13.32 32.67 -14.64 32.34 -16 32 C-16 31.34 -16 30.68 -16 30 C-16.99 30 -17.98 30 -19 30 C-19 29.01 -19 28.02 -19 27 C-19.53109375 27.2165625 -20.0621875 27.433125 -20.609375 27.65625 C-21.31578125 27.9346875 -22.0221875 28.213125 -22.75 28.5 C-23.44609375 28.7784375 -24.1421875 29.056875 -24.859375 29.34375 C-27 30 -27 30 -31 30 C-30.46311099 25.88626938 -29.25060166 23.6225653 -26.625 20.4375 C-26.01914062 19.69371094 -25.41328125 18.94992188 -24.7890625 18.18359375 C-24.19867188 17.46300781 -23.60828125 16.74242188 -23 16 C-21.99308812 14.67187868 -20.99073722 13.34023041 -20 12 C-27.03678946 19.06870234 -31.66672371 26.11051358 -36 35 C-36.66 34.67 -37.32 34.34 -38 34 C-31.34279669 19.91308514 -22.8896828 9.59834322 -9 2 C-8.36707031 1.63003906 -7.73414062 1.26007812 -7.08203125 0.87890625 C-4.08651043 -0.78527198 -3.39360122 -1.13120041 0 0 Z " fill="#EDD686" transform="translate(55,19)"/>
<path d="M0 0 C5.10594936 2.86242616 8.61408335 6.68357877 10.75 12.15625 C11.87013378 17.82630774 10.76361929 22.44520581 7.95703125 27.43359375 C5.34998789 31.15432554 1.85603089 33.38046657 -2.25 35.15625 C-7.44690346 35.99588576 -12.0063293 35.72310561 -16.625 33.09375 C-21.53356265 29.50672345 -23.79588795 26.04706086 -24.73046875 20.09765625 C-25.08961097 14.23618419 -24.94961287 10.12279599 -21.0625 5.53125 C-19.82844384 4.36602566 -18.5606339 3.23461967 -17.25 2.15625 C-16.486875 1.49625 -15.72375 0.83625 -14.9375 0.15625 C-9.98421049 -1.68683447 -4.9856762 -1.86962858 0 0 Z " fill="#EBEBEA" transform="translate(82.25,56.84375)"/>
<path d="M0 0 C10.98888407 8.39428644 17.76794823 17.74112936 23.34375 30.18359375 C22.35375 30.67859375 22.35375 30.67859375 21.34375 31.18359375 C20.9157882 33.04668467 20.9157882 33.04668467 20.78125 35.18359375 C20.43964041 39.08770334 20.43964041 39.08770334 19.34375 40.18359375 C17.67757885 40.22423207 16.00986905 40.22631475 14.34375 40.18359375 C14.34375 40.84359375 14.34375 41.50359375 14.34375 42.18359375 C13.68375 42.18359375 13.02375 42.18359375 12.34375 42.18359375 C11.68375 39.87359375 11.02375 37.56359375 10.34375 35.18359375 C8.01299071 36.14224884 8.01299071 36.14224884 6.34375 39.18359375 C6.01375 38.19359375 5.68375 37.20359375 5.34375 36.18359375 C3.69375 36.18359375 2.04375 36.18359375 0.34375 36.18359375 C0.34375 35.85359375 0.34375 35.52359375 0.34375 35.18359375 C6.28375 33.86359375 12.22375 32.54359375 18.34375 31.18359375 C16.6176815 20.82718277 9.56692723 11.67557578 1.34375 5.18359375 C-7.59273122 -0.89321348 -16.18169563 -4.25120926 -26.65625 -6.81640625 C-26.16125 2.09359375 -26.16125 2.09359375 -25.65625 11.18359375 C-26.64625 11.67859375 -26.64625 11.67859375 -27.65625 12.18359375 C-25.01625 13.17359375 -22.37625 14.16359375 -19.65625 15.18359375 C-19.65625 15.84359375 -19.65625 16.50359375 -19.65625 17.18359375 C-23.40625 18.30859375 -23.40625 18.30859375 -25.65625 17.18359375 C-25.65625 16.52359375 -25.65625 15.86359375 -25.65625 15.18359375 C-29.00564881 13.15800494 -31.52587551 12.96620388 -35.40625 13.05859375 C-36.39109375 13.07664062 -37.3759375 13.0946875 -38.390625 13.11328125 C-39.51210937 13.14808594 -39.51210937 13.14808594 -40.65625 13.18359375 C-40.89214844 13.7971875 -41.12804687 14.41078125 -41.37109375 15.04296875 C-42.99368097 17.74563683 -44.33731618 18.22510507 -47.21875 19.43359375 C-53.89815503 22.55517346 -59.54875777 27.0223554 -63.65625 33.18359375 C-64.31625 33.18359375 -64.97625 33.18359375 -65.65625 33.18359375 C-65.65625 33.84359375 -65.65625 34.50359375 -65.65625 35.18359375 C-67.63625 35.67859375 -67.63625 35.67859375 -69.65625 36.18359375 C-68.66625 33.21359375 -68.66625 33.21359375 -67.65625 30.18359375 C-66.66625 30.18359375 -65.67625 30.18359375 -64.65625 30.18359375 C-62.94266357 28.56520656 -61.2854774 26.88687694 -59.65625 25.18359375 C-55.51198567 21.22171758 -51.55507556 18.38020147 -46.2578125 16.140625 C-44.30215753 15.20823873 -44.30215753 15.20823873 -43.65625 12.18359375 C-42.99625 12.18359375 -42.33625 12.18359375 -41.65625 12.18359375 C-41.98625 11.27609375 -42.31625 10.36859375 -42.65625 9.43359375 C-44.21146854 4.12175579 -43.81821433 -1.3366132 -43.65625 -6.81640625 C-44.90341797 -6.47416016 -44.90341797 -6.47416016 -46.17578125 -6.125 C-47.26246094 -5.83753906 -48.34914063 -5.55007812 -49.46875 -5.25390625 C-51.08716797 -4.81884766 -51.08716797 -4.81884766 -52.73828125 -4.375 C-55.65625 -3.81640625 -55.65625 -3.81640625 -58.65625 -4.81640625 C-57.66625 -5.14640625 -56.67625 -5.47640625 -55.65625 -5.81640625 C-55.65625 -6.47640625 -55.65625 -7.13640625 -55.65625 -7.81640625 C-36.39405341 -13.94528698 -16.7854962 -11.47831725 0 0 Z " fill="#EA821C" transform="translate(110.65625,24.81640625)"/>
<path d="M0 0 C2.62834278 0 5.08186701 -0.19789762 7.6875 -0.5 C8.49574219 -0.5928125 9.30398437 -0.685625 10.13671875 -0.78125 C11.05904297 -0.88953125 11.05904297 -0.88953125 12 -1 C12.06058594 -0.21496094 12.12117188 0.57007812 12.18359375 1.37890625 C12.62820214 6.95361148 13.12124643 12.47640616 14 18 C12.68 18.99 11.36 19.98 10 21 C10 20.34 10 19.68 10 19 C8.35 19 6.7 19 5 19 C5 18.34 5 17.68 5 17 C4.34 17 3.68 17 3 17 C3 16.34 3 15.68 3 15 C2.278125 15.185625 1.55625 15.37125 0.8125 15.5625 C-2.21874968 16.03402773 -4.01344845 15.61088555 -7 15 C-10.0019198 14.90887933 -12.9975929 14.94112927 -16 15 C-16 13 -16 13 -14 11 C-20.17656848 11.90074957 -23.0381154 14.46743481 -27 19.203125 C-30.55497419 24.17453421 -33.2930795 29.52694511 -36 35 C-36.66 34.67 -37.32 34.34 -38 34 C-31.34279669 19.91308514 -22.8896828 9.59834322 -9 2 C-8.36707031 1.63003906 -7.73414062 1.26007812 -7.08203125 0.87890625 C-4.08651043 -0.78527198 -3.39360122 -1.13120041 0 0 Z " fill="#EAC068" transform="translate(55,19)"/>
<path d="M0 0 C0.33 0.66 0.66 1.32 1 2 C2.32 2 3.64 2 5 2 C5.09861328 2.93972656 5.09861328 2.93972656 5.19921875 3.8984375 C5.79871748 6.21165758 5.79871748 6.21165758 8.14453125 6.9765625 C9.02496094 7.19054687 9.90539062 7.40453125 10.8125 7.625 C14.12513131 8.45682765 16.99509535 9.3609611 20 11 C18.72119265 15.53214624 17.05105918 18.6214328 14.0625 22.25 C13.37285156 23.10078125 12.68320313 23.9515625 11.97265625 24.828125 C10 27 10 27 7 29 C6.29875 28.236875 5.5975 27.47375 4.875 26.6875 C2.03647396 24.03409522 -0.46949051 22.55999257 -4 21 C-4 20.34 -4 19.68 -4 19 C-4.99 19 -5.98 19 -7 19 C-8.59369248 15.5137977 -9.65354665 12.82791609 -9 9 C-7.53370424 6.6200892 -6.01341919 5.01341919 -4 3 C-3.01 3 -2.02 3 -1 3 C-0.67 2.01 -0.34 1.02 0 0 Z " fill="#E1A979" transform="translate(108,89)"/>
<path d="M0 0 C10.77293236 1.15017565 18.89690948 5.18951669 28 11 C27.01 11.33 26.02 11.66 25 12 C22.8125 10.5625 22.8125 10.5625 21 9 C20.01 9.495 20.01 9.495 19 10 C18.59270772 12.32156597 18.25561323 14.6568787 18 17 C16.02 17.33 14.04 17.66 12 18 C11.67 19.32 11.34 20.64 11 22 C10.01 22 9.02 22 8 22 C8.33 22.99 8.66 23.98 9 25 C8.01 25.33 7.02 25.66 6 26 C5.34 25.34 4.68 24.68 4 24 C4.99 24 5.98 24 7 24 C5.694761 21.38952199 4.64173426 21.31933577 1.9375 20.375 C1.20402344 20.11460938 0.47054687 19.85421875 -0.28515625 19.5859375 C-0.85105469 19.39257812 -1.41695313 19.19921875 -2 19 C-1.34 18.34 -0.68 17.68 0 17 C0.14517744 14.0906442 0.18630796 11.280054 0.125 8.375 C0.11597656 7.57320312 0.10695313 6.77140625 0.09765625 5.9453125 C0.07406223 3.96341477 0.03819065 1.98167019 0 0 Z " fill="#E4CA80" transform="translate(84,18)"/>
<path d="M0 0 C0.33 0.66 0.66 1.32 1 2 C0.67 2.66 0.34 3.32 0 4 C0.99 4 1.98 4 3 4 C3 4.66 3 5.32 3 6 C3.639375 6.103125 4.27875 6.20625 4.9375 6.3125 C5.618125 6.539375 6.29875 6.76625 7 7 C8 10 8 10 6.5625 13.1875 C5.7890625 14.5796875 5.7890625 14.5796875 5 16 C3.35425434 16.02688151 1.70838587 16.04634123 0.0625 16.0625 C-0.85402344 16.07410156 -1.77054688 16.08570312 -2.71484375 16.09765625 C-5 16 -5 16 -6 15 C-6.66 16.32 -7.32 17.64 -8 19 C-9.32 17.68 -10.64 16.36 -12 15 C-12.66 16.32 -13.32 17.64 -14 19 C-15.32 19 -16.64 19 -18 19 C-17.35083537 12.99522721 -15.14204997 7.599219 -13 2 C-12.67 2.66 -12.34 3.32 -12 4 C-10.18641846 3.52494322 -8.37415821 3.04483958 -6.5625 2.5625 C-5.55316406 2.29566406 -4.54382813 2.02882812 -3.50390625 1.75390625 C-1.08247999 1.24021923 -1.08247999 1.24021923 0 0 Z " fill="#DDA55D" transform="translate(36,45)"/>
<path d="M0 0 C0.33 0.66 0.66 1.32 1 2 C2.65 1.67 4.3 1.34 6 1 C6 1.66 6 2.32 6 3 C6.66 3 7.32 3 8 3 C8 3.66 8 4.32 8 5 C9.65 5 11.3 5 13 5 C13 5.66 13 6.32 13 7 C13.66 7.33 14.32 7.66 15 8 C13.96875 8.4125 12.9375 8.825 11.875 9.25 C4.15024067 12.62474456 -0.64237927 17.63612563 -6 24 C-6.33 23.34 -6.66 22.68 -7 22 C-6.67 21.34 -6.34 20.68 -6 20 C-6.66 20 -7.32 20 -8 20 C-6.87548273 17.0280615 -5.77706209 14.66559313 -4 12 C-4.598125 12.495 -5.19625 12.99 -5.8125 13.5 C-8 15 -8 15 -11 15 C-11 14.01 -11 13.02 -11 12 C-11.99 12 -12.98 12 -14 12 C-10.0679294 6.67267854 -5.61946506 3.4524818 0 0 Z " fill="#ECD896" transform="translate(52,33)"/>
<path d="M0 0 C4.95 0 9.9 0 15 0 C15 3.3 15 6.6 15 10 C17.64 10.99 20.28 11.98 23 13 C23 13.66 23 14.32 23 15 C19.25 16.125 19.25 16.125 17 15 C17 14.34 17 13.68 17 13 C13.65060119 10.97441119 11.13037449 10.78261013 7.25 10.875 C6.26515625 10.89304687 5.2803125 10.91109375 4.265625 10.9296875 C3.51796875 10.95289063 2.7703125 10.97609375 2 11 C1.76410156 11.61359375 1.52820313 12.2271875 1.28515625 12.859375 C-0.33743097 15.56204308 -1.68106618 16.04151132 -4.5625 17.25 C-11.24190503 20.37157971 -16.89250777 24.83876165 -21 31 C-21.66 31 -22.32 31 -23 31 C-23 31.66 -23 32.32 -23 33 C-24.98 33.495 -24.98 33.495 -27 34 C-26.01 31.03 -26.01 31.03 -25 28 C-24.01 28 -23.02 28 -22 28 C-20.28641357 26.38161281 -18.6292274 24.70328319 -17 23 C-12.85573567 19.03812383 -8.89882556 16.19660772 -3.6015625 13.95703125 C-1.64590753 13.02464498 -1.64590753 13.02464498 -1 10 C-0.34 10 0.32 10 1 10 C0.505 5.05 0.505 5.05 0 0 Z " fill="#E1741D" transform="translate(68,27)"/>
<path d="M0 0 C13.41731905 0.60987814 24.75302323 10.41886684 33.6875 19.625 C38.77387699 25.41731543 41.87354203 32.02327386 45 39 C44.01 39.495 44.01 39.495 43 40 C42.5720382 41.86309092 42.5720382 41.86309092 42.4375 44 C42.09589041 47.90410959 42.09589041 47.90410959 41 49 C39.33382885 49.04063832 37.66611905 49.042721 36 49 C36 49.66 36 50.32 36 51 C35.34 51 34.68 51 34 51 C33.34 48.69 32.68 46.38 32 44 C29.66924071 44.95865509 29.66924071 44.95865509 28 48 C27.67 47.01 27.34 46.02 27 45 C25.35 45 23.7 45 22 45 C22 44.67 22 44.34 22 44 C27.94 42.68 33.88 41.36 40 40 C38.26272941 29.57637645 31.18090528 20.61560571 23 14 C20.34889712 12.29843254 17.6788251 10.72141474 14.90625 9.2265625 C14.2771875 8.82179688 13.648125 8.41703125 13 8 C13 7.34 13 6.68 13 6 C8.71 4.35 4.42 2.7 0 1 C0 0.67 0 0.34 0 0 Z " fill="#E68539" transform="translate(89,16)"/>
<path d="M0 0 C-2.6366733 6.48705335 -9.22436654 8.72533859 -15.2578125 11.49609375 C-29.66025787 17.0829764 -45.32342925 17.05072763 -59.734375 11.51171875 C-64.3955807 9.35395965 -68.7625934 6.90137723 -73 4 C-70.39197919 3.01075073 -69.30458627 2.87908384 -66.66796875 3.92578125 C-65.84941406 4.38339844 -65.03085938 4.84101562 -64.1875 5.3125 C-60.17185121 7.44710332 -56.43081902 8.89229525 -52 10 C-51.07832031 10.35578125 -50.15664063 10.7115625 -49.20703125 11.078125 C-45.62509335 12.10776854 -43.12311415 11.98458332 -39.4375 11.5625 C-35.3290141 11.10277543 -32.02045916 10.97429627 -28 12 C-27.67 11.34 -27.34 10.68 -27 10 C-25.68 10.33 -24.36 10.66 -23 11 C-22.67 10.34 -22.34 9.68 -22 9 C-19.4375 8.375 -19.4375 8.375 -17 8 C-16.67 7.01 -16.34 6.02 -16 5 C-15.01 5.33 -14.02 5.66 -13 6 C-13 5.34 -13 4.68 -13 4 C-11.02 3.01 -9.04 2.02 -7 1 C-7 1.66 -7 2.32 -7 3 C-6.21625 2.505 -5.4325 2.01 -4.625 1.5 C-2 0 -2 0 0 0 Z " fill="#AA370A" transform="translate(113,121)"/>
<path d="M0 0 C2.84550012 0.66010476 5.52325999 1.51724966 8.25 2.5625 C8.95640625 2.83191406 9.6628125 3.10132813 10.390625 3.37890625 C10.92171875 3.58386719 11.4528125 3.78882813 12 4 C11.67 3.01 11.34 2.02 11 1 C12.32 1.33 13.64 1.66 15 2 C15 1.34 15 0.68 15 0 C15.99 0 16.98 0 18 0 C21 4.22222222 21 4.22222222 21 7 C21.66 7 22.32 7 23 7 C23.33 8.65 23.66 10.3 24 12 C18.25 13.125 18.25 13.125 16 12 C16 12.66 16 13.32 16 14 C14.02 14.33 12.04 14.66 10 15 C8.68 13.35 7.36 11.7 6 10 C6 10.66 6 11.32 6 12 C5.01 12.33 4.02 12.66 3 13 C1.02 10.03 -0.96 7.06 -3 4 C-2.01 3.34 -1.02 2.68 0 2 C0 1.34 0 0.68 0 0 Z " fill="#F0E5C9" transform="translate(105,43)"/>
<path d="M0 0 C1.875 0.25 1.875 0.25 4 1 C6.13925783 3.99496096 6.07124255 6.41412481 6 10 C0.76640529 13.00249311 -4.42134086 15.70290506 -10 18 C-11.33758236 18.65810003 -12.67189267 19.32298216 -14 20 C-14.86380259 18.71475739 -15.71580369 17.42157581 -16.5625 16.125 C-17.03816406 15.40570313 -17.51382812 14.68640625 -18.00390625 13.9453125 C-18.49697266 12.98238281 -18.49697266 12.98238281 -19 12 C-18.67 11.34 -18.34 10.68 -18 10 C-16.02 10.495 -16.02 10.495 -14 11 C-14 10.34 -14 9.68 -14 9 C-13.21753906 8.66226563 -12.43507813 8.32453125 -11.62890625 7.9765625 C-10.11103516 7.30753906 -10.11103516 7.30753906 -8.5625 6.625 C-7.55316406 6.18414062 -6.54382813 5.74328125 -5.50390625 5.2890625 C-2.87856453 4.24923714 -2.87856453 4.24923714 -2 2 C-1.34 2 -0.68 2 0 2 C0 1.34 0 0.68 0 0 Z " fill="#DFBFA3" transform="translate(42,90)"/>
<path d="M0 0 C1.11375 0.7115625 1.11375 0.7115625 2.25 1.4375 C4.77674903 3.07039183 4.77674903 3.07039183 7 3.375 C9.60412362 4.18878863 10.2742123 5.30782435 11.75 7.5625 C12.17796875 8.20316406 12.6059375 8.84382813 13.046875 9.50390625 C13.36140625 9.99761719 13.6759375 10.49132813 14 11 C10.13351728 9.95902388 6.50538557 8.96301592 3 7 C3.33 7.99 3.66 8.98 4 10 C3.01 10.66 2.02 11.32 1 12 C1.75827092 13.17487036 2.53207755 14.33972592 3.3125 15.5 C3.74175781 16.1496875 4.17101562 16.799375 4.61328125 17.46875 C5.07089844 17.9740625 5.52851562 18.479375 6 19 C6.99 19 7.98 19 9 19 C8.67 17.68 8.34 16.36 8 15 C11.0109362 17.0072908 11.63016497 17.83884224 13 21 C13.66 20.67 14.32 20.34 15 20 C17.125 20.4375 17.125 20.4375 19 21 C19 20.34 19 19.68 19 19 C20.98 19 22.96 19 25 19 C25.33 17.35 25.66 15.7 26 14 C28 17 28 17 27.625 19.1875 C27.41875 19.785625 27.2125 20.38375 27 21 C24.06554685 21.7238916 21.12869212 22.4295236 18.1875 23.125 C17.35412109 23.33253906 16.52074219 23.54007813 15.66210938 23.75390625 C14.85966797 23.94082031 14.05722656 24.12773438 13.23046875 24.3203125 C12.49207764 24.49836426 11.75368652 24.67641602 10.99291992 24.85986328 C9 25 9 25 6 23 C5.01 23 4.02 23 3 23 C1.5703125 21.4609375 1.5703125 21.4609375 0.125 19.375 C-2.44232661 15.76790612 -5.13313142 12.37278656 -8 9 C-6 10 -4 11 -2 12 C-2 11.01 -2 10.02 -2 9 C-1.01 8.34 -0.02 7.68 1 7 C0.67 4.69 0.34 2.38 0 0 Z " fill="#F2E5B7" transform="translate(102,36)"/>
<path d="M0 0 C1.9375 0.3125 1.9375 0.3125 4 1 C4.33 1.99 4.66 2.98 5 4 C4.01 4 3.02 4 2 4 C2 4.66 2 5.32 2 6 C1.34 6 0.68 6 0 6 C-0.33 6.99 -0.66 7.98 -1 9 C-2.7421875 10.16796875 -2.7421875 10.16796875 -4.875 11.1875 C-5.57367188 11.53167969 -6.27234375 11.87585938 -6.9921875 12.23046875 C-9 13 -9 13 -12 13 C-12 13.66 -12 14.32 -12 15 C-13.98 15 -15.96 15 -18 15 C-18.66 12.03 -19.32 9.06 -20 6 C-17.36 5.67 -14.72 5.34 -12 5 C-12 4.34 -12 3.68 -12 3 C-7.9472484 2.01751476 -4.16138263 1.91840426 0 2 C0 1.34 0 0.68 0 0 Z " fill="#CB6F3F" transform="translate(40,86)"/>
<path d="M0 0 C1.65 0 3.3 0 5 0 C4.01 0.33 3.02 0.66 2 1 C2.99 2.65 3.98 4.3 5 6 C4.67 6.33 4.34 6.66 4 7 C8.455 8.98 8.455 8.98 13 11 C9.25 14.875 9.25 14.875 7 16 C8.65 16.99 10.3 17.98 12 19 C11.67 19.99 11.34 20.98 11 22 C10.01 22 9.02 22 8 22 C8.33 22.99 8.66 23.98 9 25 C8.01 25.33 7.02 25.66 6 26 C5.34 25.34 4.68 24.68 4 24 C4.99 24 5.98 24 7 24 C5.694761 21.38952199 4.64173426 21.31933577 1.9375 20.375 C1.20402344 20.11460938 0.47054687 19.85421875 -0.28515625 19.5859375 C-0.85105469 19.39257812 -1.41695313 19.19921875 -2 19 C-1.34 18.34 -0.68 17.68 0 17 C0.14517744 14.0906442 0.18630796 11.280054 0.125 8.375 C0.11597656 7.57320312 0.10695313 6.77140625 0.09765625 5.9453125 C0.07406223 3.96341477 0.03819065 1.98167019 0 0 Z " fill="#E8C181" transform="translate(84,18)"/>
<path d="M0 0 C0.66 0.33 1.32 0.66 2 1 C1.57589844 1.37769531 1.15179688 1.75539063 0.71484375 2.14453125 C-8.92294688 11.18922707 -13.367489 21.59589563 -17 34 C-16.01 34.33 -15.02 34.66 -14 35 C-14.49113281 35.33644531 -14.98226563 35.67289063 -15.48828125 36.01953125 C-17.77280406 39.01243323 -17.318576 42.08795135 -17.1875 45.6875 C-17.17396484 46.38939453 -17.16042969 47.09128906 -17.14648438 47.81445312 C-17.11120182 49.54329829 -17.05739583 51.27174765 -17 53 C-18.98 53.495 -18.98 53.495 -21 54 C-24.35290435 43.94128696 -21.23924925 33.64544309 -18 24 C-17.34 24 -16.68 24 -16 24 C-15.73574219 23.12214844 -15.47148437 22.24429688 -15.19921875 21.33984375 C-12.17199147 12.90896648 -6.63730688 5.91103622 0 0 Z " fill="#E07010" transform="translate(35,30)"/>
<path d="M0 0 C0.69544922 -0.020625 1.39089844 -0.04125 2.10742188 -0.0625 C7.25827458 -0.10097509 10.69585785 0.97024726 15.3125 3.25 C18.70979548 4.7760033 18.70979548 4.7760033 22.3125 5.25 C22.3125 4.59 22.3125 3.93 22.3125 3.25 C25.03824271 3.62330824 26.12072085 4.04194601 28.015625 6.09765625 C28.52609375 6.82855469 29.0365625 7.55945312 29.5625 8.3125 C30.34367187 9.41271484 30.34367187 9.41271484 31.140625 10.53515625 C31.52734375 11.10105469 31.9140625 11.66695312 32.3125 12.25 C29.67345629 13.66377341 27.24129371 14.62240135 24.3125 15.25 C23.9 14.71890625 23.4875 14.1878125 23.0625 13.640625 C18.10999665 7.58265215 12.43811712 3.01413629 4.40234375 2.01171875 C-3.4107042 1.7423033 -10.2523729 3.99504798 -16.3125 9 C-17.09625 9.7425 -17.88 10.485 -18.6875 11.25 C-17.32060446 8.09930578 -15.83092115 6.24108226 -13.1875 4.0625 C-12.5790625 3.55332031 -11.970625 3.04414062 -11.34375 2.51953125 C-7.75731811 -0.22950263 -4.34782673 0.03136394 0 0 Z " fill="#E8700A" transform="translate(73.6875,46.75)"/>
<path d="M0 0 C0.33 0.66 0.66 1.32 1 2 C2.32 2 3.64 2 5 2 C5.09861328 2.93972656 5.09861328 2.93972656 5.19921875 3.8984375 C5.79871748 6.21165758 5.79871748 6.21165758 8.14453125 6.9765625 C9.02496094 7.19054687 9.90539062 7.40453125 10.8125 7.625 C14.12513131 8.45682765 16.99509535 9.3609611 20 11 C19.34 12.98 18.68 14.96 18 17 C10.25 16.25 10.25 16.25 8 14 C6.68 14.99 5.36 15.98 4 17 C4.391875 16.2575 4.78375 15.515 5.1875 14.75 C5.455625 13.8425 5.72375 12.935 6 12 C4.67662714 9.84659471 4.67662714 9.84659471 3 8 C3 7.01 3 6.02 3 5 C0.36 5 -2.28 5 -5 5 C-4.67 4.34 -4.34 3.68 -4 3 C-3.01 3 -2.02 3 -1 3 C-0.67 2.01 -0.34 1.02 0 0 Z " fill="#D8986B" transform="translate(108,89)"/>
<path d="M0 0 C11.63024447 2.65025482 18.61729987 10.42109076 24.96875 20.1171875 C26 22 26 22 26 24 C25.34 24 24.68 24 24 24 C22.63242962 22.01860265 21.49654964 19.94527788 20.31640625 17.84765625 C19.05288044 15.69032541 19.05288044 15.69032541 16 15 C15.67 15.66 15.34 16.32 15 17 C14.33613281 16.39671875 13.67226562 15.7934375 12.98828125 15.171875 C12.10527344 14.37265625 11.22226563 13.5734375 10.3125 12.75 C9.44238281 11.96109375 8.57226562 11.1721875 7.67578125 10.359375 C5.04505957 7.96311535 5.04505957 7.96311535 2.16796875 5.953125 C1.45253906 5.30859375 0.73710938 4.6640625 0 4 C0 2.68 0 1.36 0 0 Z " fill="#EFE192" transform="translate(102,26)"/>
<path d="M0 0 C0.33 0.66 0.66 1.32 1 2 C0.34 1.67 -0.32 1.34 -1 1 C-0.67 0.67 -0.34 0.34 0 0 Z M-10 -1 C-9.67 -0.01 -9.34 0.98 -9 2 C-10.4375 4.6875 -10.4375 4.6875 -12 7 C-6.43282467 4.64543677 -6.43282467 4.64543677 -1 2 C-0.34 3.32 0.32 4.64 1 6 C1.66 5.67 2.32 5.34 3 5 C3 5.99 3 6.98 3 8 C6.07536854 7.34099246 8.07735566 6.46132217 11 5 C8.03 9.455 8.03 9.455 5 14 C5.66 14.33 6.32 14.66 7 15 C6.01 15 5.02 15 4 15 C4 14.34 4 13.68 4 13 C2.68 12.67 1.36 12.34 0 12 C0 11.34 0 10.68 0 10 C-0.99 10 -1.98 10 -3 10 C-3 9.01 -3 8.02 -3 7 C-3.53109375 7.2165625 -4.0621875 7.433125 -4.609375 7.65625 C-5.31578125 7.9346875 -6.0221875 8.213125 -6.75 8.5 C-7.44609375 8.7784375 -8.1421875 9.056875 -8.859375 9.34375 C-11 10 -11 10 -15 10 C-14.46884894 5.48521602 -12.63379708 2.65333143 -10 -1 Z " fill="#E9CA83" transform="translate(39,39)"/>
<path d="M0 0 C0 0.33 0 0.66 0 1 C0.66 1.33 1.32 1.66 2 2 C-1 4 -1 4 -3.1875 3.625 C-3.785625 3.41875 -4.38375 3.2125 -5 3 C-5 3.66 -5 4.32 -5 5 C-5.62648437 5.26554687 -6.25296875 5.53109375 -6.8984375 5.8046875 C-8.12433594 6.33449219 -8.12433594 6.33449219 -9.375 6.875 C-10.18710937 7.22304688 -10.99921875 7.57109375 -11.8359375 7.9296875 C-14.13802299 8.92446067 -14.13802299 8.92446067 -16 11 C-16.78632812 11.29261719 -17.57265625 11.58523437 -18.3828125 11.88671875 C-27.30987886 15.68405295 -31.93557981 26.78225042 -36 35 C-36.66 34.67 -37.32 34.34 -38 34 C-31.34279669 19.91308514 -22.8896828 9.59834322 -9 2 C-8.36707031 1.63003906 -7.73414062 1.26007812 -7.08203125 0.87890625 C-4.08651043 -0.78527198 -3.39360122 -1.13120041 0 0 Z " fill="#E6AF51" transform="translate(55,19)"/>
<path d="M0 0 C0 2.31 0 4.62 0 7 C-4.95 7 -9.9 7 -15 7 C-15 4.69 -15 2.38 -15 0 C-9.96266834 -1.5111995 -5.11828973 -0.64599773 0 0 Z " fill="#E57916" transform="translate(83,19)"/>
<path d="M0 0 C-0.99 0.495 -0.99 0.495 -2 1 C-0.35 1.66 1.3 2.32 3 3 C3 3.33 3 3.66 3 4 C1.35 4 -0.3 4 -2 4 C-1.67 5.98 -1.34 7.96 -1 10 C-0.33613281 9.98839844 0.32773438 9.97679687 1.01171875 9.96484375 C9.78207381 9.87521968 9.78207381 9.87521968 14 11 C14.495 15.95 14.495 15.95 15 21 C14.34 21 13.68 21 13 21 C13 18.03 13 15.06 13 12 C8.05 12 3.1 12 -2 12 C-2.33 12.99 -2.66 13.98 -3 15 C-3 11.04 -3 7.08 -3 3 C-3.83144531 3.22816406 -4.66289063 3.45632812 -5.51953125 3.69140625 C-6.60621094 3.97886719 -7.69289063 4.26632813 -8.8125 4.5625 C-10.43091797 4.99755859 -10.43091797 4.99755859 -12.08203125 5.44140625 C-15 6 -15 6 -18 5 C-17.01 4.67 -16.02 4.34 -15 4 C-15 3.34 -15 2.68 -15 2 C-13.06524329 1.46906676 -11.12706845 0.95057683 -9.1875 0.4375 C-8.10855469 0.14746094 -7.02960937 -0.14257812 -5.91796875 -0.44140625 C-3 -1 -3 -1 0 0 Z " fill="#E59337" transform="translate(70,15)"/>
<path d="M0 0 C1.32 0.33 2.64 0.66 4 1 C4 2.65 4 4.3 4 6 C3.34 6 2.68 6 2 6 C1.67 7.32 1.34 8.64 1 10 C-0.32 10 -1.64 10 -3 10 C-3.33 10.66 -3.66 11.32 -4 12 C-6.30965848 13.05352843 -8.6429774 14.05719096 -11 15 C-11.33 13.68 -11.66 12.36 -12 11 C-11.34 11 -10.68 11 -10 11 C-10 10.34 -10 9.68 -10 9 C-8.36395804 7.62926214 -6.69321939 6.29944744 -5 5 C-4.1646875 4.13375 -4.1646875 4.13375 -3.3125 3.25 C-2 2 -2 2 0 2 C0 1.34 0 0.68 0 0 Z " fill="#E5C7AB" transform="translate(42,90)"/>
<path d="M0 0 C0.21931821 3.21666704 0.26828383 5.43362303 -1.125 8.375 C-3 10 -3 10 -6.1875 10.25 C-7.115625 10.1675 -8.04375 10.085 -9 10 C-9 9.01 -9 8.02 -9 7 C-9.66 7 -10.32 7 -11 7 C-10.8125 4.6875 -10.8125 4.6875 -10 2 C-6.46899884 -0.94250097 -4.36267794 -1.37112735 0 0 Z " fill="#DDB594" transform="translate(111,94)"/>
<path d="M0 0 C0.99 0.66 1.98 1.32 3 2 C3 2.66 3 3.32 3 4 C3.99 4 4.98 4 6 4 C6 4.66 6 5.32 6 6 C6.99 6.33 7.98 6.66 9 7 C9.99 7.33 10.98 7.66 12 8 C11.34 9.32 10.68 10.64 10 12 C9.01 12 8.02 12 7 12 C6.01 12.33 5.02 12.66 4 13 C4 12.34 4 11.68 4 11 C-0.95 13.475 -0.95 13.475 -6 16 C-6.99 15.01 -7.98 14.02 -9 13 C-7.730447 12.35165346 -6.45930294 11.70642185 -5.1875 11.0625 C-4.47980469 10.70285156 -3.77210937 10.34320313 -3.04296875 9.97265625 C-1 9 -1 9 2 8 C1.855625 7.4225 1.71125 6.845 1.5625 6.25 C1.04166667 4.16666667 0.52083333 2.08333333 0 0 Z " fill="#B54712" transform="translate(96,105)"/>
<path d="M0 0 C2.76544722 3.45680903 4.84921278 7.14341602 7 11 C8.11375 10.319375 9.2275 9.63875 10.375 8.9375 C12.2734375 7.77734375 12.2734375 7.77734375 14 7 C14.66 7.33 15.32 7.66 16 8 C14.68 9.65 13.36 11.3 12 13 C12.309375 13.61875 12.61875 14.2375 12.9375 14.875 C13.625 16.25 14.3125 17.625 15 19 C13.68 19.33 12.36 19.66 11 20 C5.31036818 14.15506805 1.25290901 8.49107412 -2 1 C-1.34 0.67 -0.68 0.34 0 0 Z " fill="#D35E19" transform="translate(21,98)"/>
<path d="M0 0 C2.0625 0.4375 2.0625 0.4375 4 1 C3.01 1.33 2.02 1.66 1 2 C1 2.66 1 3.32 1 4 C0.34 4 -0.32 4 -1 4 C-1.33 4.99 -1.66 5.98 -2 7 C-3.7421875 8.16796875 -3.7421875 8.16796875 -5.875 9.1875 C-6.57367188 9.53167969 -7.27234375 9.87585938 -7.9921875 10.23046875 C-10 11 -10 11 -13 11 C-13 11.66 -13 12.32 -13 13 C-14.98 13 -16.96 13 -19 13 C-19.33 10.69 -19.66 8.38 -20 6 C-19.01 6.495 -19.01 6.495 -18 7 C-18 7.66 -18 8.32 -18 9 C-17.01 9.33 -16.02 9.66 -15 10 C-14.34 9.34 -13.68 8.68 -13 8 C-12.34 8.33 -11.68 8.66 -11 9 C-11.33 8.01 -11.66 7.02 -12 6 C-11.01 5.67 -10.02 5.34 -9 5 C-8.67 5.66 -8.34 6.32 -8 7 C-7.34 6.34 -6.68 5.68 -6 5 C-6 3.68 -6 2.36 -6 1 C-4.7934375 1.0309375 -4.7934375 1.0309375 -3.5625 1.0625 C-1.06645115 1.29633621 -1.06645115 1.29633621 0 0 Z " fill="#CC8B68" transform="translate(41,88)"/>
<path d="M0 0 C-1.26837104 3.55143892 -3.064412 4.73337813 -6.203125 6.65234375 C-10.01037331 9.50777998 -12.94821859 13.37504137 -16 17 C-16.33 16.34 -16.66 15.68 -17 15 C-16.67 14.34 -16.34 13.68 -16 13 C-16.66 13 -17.32 13 -18 13 C-18 12.34 -18 11.68 -18 11 C-16.64453125 9.66796875 -16.64453125 9.66796875 -14.8125 8.1875 C-12.47339359 6.25560644 -10.34119019 4.34119019 -8.1875 2.1875 C-5.094377 -0.905623 -4.07581156 -1.22274347 0 0 Z " fill="#F5E283" transform="translate(62,40)"/>
<path d="M0 0 C3.32763677 0.57373048 4.80395615 1.45601154 7 4 C8.203125 6.19140625 8.203125 6.19140625 9.25 8.5625 C9.60578125 9.34753906 9.9615625 10.13257813 10.328125 10.94140625 C11 13 11 13 10 15 C8.68 13.35 7.36 11.7 6 10 C6 10.66 6 11.32 6 12 C5.01 12.33 4.02 12.66 3 13 C1.02 10.03 -0.96 7.06 -3 4 C-2.01 3.34 -1.02 2.68 0 2 C0 1.34 0 0.68 0 0 Z " fill="#F3ECE1" transform="translate(105,43)"/>
<path d="M0 0 C0 0.66 0 1.32 0 2 C-0.99 2.66 -1.98 3.32 -3 4 C-1.68 4.66 -0.36 5.32 1 6 C0.01 6.66 -0.98 7.32 -2 8 C-1.34 8.33 -0.68 8.66 0 9 C0 9.66 0 10.32 0 11 C-4.29 11 -8.58 11 -13 11 C-13 9 -13 9 -11 7 C-11.66 6.67 -12.32 6.34 -13 6 C-9.13878354 2.5930443 -5.3218579 0 0 0 Z M-7 5 C-6 7 -6 7 -6 7 Z " fill="#EDD178" transform="translate(52,23)"/>
<path d="M0 0 C1.32 1.32 2.64 2.64 4 4 C4.66 2.68 5.32 1.36 6 0 C6.33 0.66 6.66 1.32 7 2 C8.27875 1.79375 9.5575 1.5875 10.875 1.375 C13.0546875 1.0234375 13.0546875 1.0234375 15 1 C15.66 1.66 16.32 2.32 17 3 C16.34 4.32 15.68 5.64 15 7 C11.37 6.67 7.74 6.34 4 6 C4 6.66 4 7.32 4 8 C3.34 8 2.68 8 2 8 C1.67 7.34 1.34 6.68 1 6 C0.01 6 -0.98 6 -2 6 C-1.34 4.02 -0.68 2.04 0 0 Z " fill="#D1500D" transform="translate(24,59)"/>
<path d="M0 0 C0.66 0.33 1.32 0.66 2 1 C1.57589844 1.37769531 1.15179688 1.75539063 0.71484375 2.14453125 C-8.92294688 11.18922707 -13.367489 21.59589563 -17 34 C-16.01 34.33 -15.02 34.66 -14 35 C-16.475 35.495 -16.475 35.495 -19 36 C-19.02698189 34.37509046 -19.04638757 32.75005367 -19.0625 31.125 C-19.07410156 30.22007813 -19.08570313 29.31515625 -19.09765625 28.3828125 C-19 26 -19 26 -18 24 C-17.34 24 -16.68 24 -16 24 C-15.73574219 23.12214844 -15.47148437 22.24429688 -15.19921875 21.33984375 C-12.17199147 12.90896648 -6.63730688 5.91103622 0 0 Z " fill="#F06E06" transform="translate(35,30)"/>
<path d="M0 0 C1.65 0.33 3.3 0.66 5 1 C5.08004482 4.5219721 5.04005702 7.61981469 4 11 C-0.22250055 12.60455021 -2.15482358 13.33807057 -6.4375 11.625 C-7.7059375 10.820625 -7.7059375 10.820625 -9 10 C-8.360625 9.71125 -7.72125 9.4225 -7.0625 9.125 C-4.84793921 8.17176549 -4.84793921 8.17176549 -4 6 C-3.01 6 -2.02 6 -1 6 C-1 5.34 -1 4.68 -1 4 C-0.34 4 0.32 4 1 4 C0.67 2.68 0.34 1.36 0 0 Z " fill="#F0CF8A" transform="translate(98,24)"/>
<path d="M0 0 C0 4.96149981 -2.71762775 8.41334472 -6 12 C-10.84421199 14.92043402 -15.35013598 16.23163435 -21 16 C-19.68 15.67 -18.36 15.34 -17 15 C-17.33 14.01 -17.66 13.02 -18 12 C-17.48050781 11.74605469 -16.96101563 11.49210937 -16.42578125 11.23046875 C-10.0814482 8.09934689 -4.92602117 5.20750809 0 0 Z " fill="#B83905" transform="translate(100,95)"/>
<path d="M0 0 C3.99489832 6.24102589 2.87647195 16.35393979 1.54882812 23.39160156 C-1.72749583 37.12608762 -1.72749583 37.12608762 -6 42 C-5.979375 41.236875 -5.95875 40.47375 -5.9375 39.6875 C-5.87057159 36.89814214 -5.87057159 36.89814214 -7 34 C-5.6875 31.8125 -5.6875 31.8125 -4 30 C-3.34 30 -2.68 30 -2 30 C-2 27.36 -2 24.72 -2 22 C-1.67 22 -1.34 22 -1 22 C0.17700048 17.37540756 0.11408412 12.92133538 0.0625 8.1875 C0.05798828 7.39923828 0.05347656 6.61097656 0.04882812 5.79882812 C0.03711312 3.86585239 0.01917998 1.93291607 0 0 Z " fill="#C65414" transform="translate(135,62)"/>
<path d="M0 0 C1.65 0 3.3 0 5 0 C4.01 0.33 3.02 0.66 2 1 C2.99 2.65 3.98 4.3 5 6 C4.67 6.33 4.34 6.66 4 7 C8.455 8.98 8.455 8.98 13 11 C10.50907189 12.24546405 9.58919267 11.7767578 7 11 C6.67 11.99 6.34 12.98 6 14 C4.02 14.99 2.04 15.98 0 17 C0 11.39 0 5.78 0 0 Z " fill="#E2B573" transform="translate(84,18)"/>
<path d="M0 0 C2 3 2 3 1.625 5.1875 C1.41875 5.785625 1.2125 6.38375 1 7 C-1.93445315 7.7238916 -4.87130788 8.4295236 -7.8125 9.125 C-8.64587891 9.33253906 -9.47925781 9.54007813 -10.33789062 9.75390625 C-11.54155273 10.03427734 -11.54155273 10.03427734 -12.76953125 10.3203125 C-13.50792236 10.49836426 -14.24631348 10.67641602 -15.00708008 10.85986328 C-17 11 -17 11 -20 9 C-19.67 7.68 -19.34 6.36 -19 5 C-18.34 5 -17.68 5 -17 5 C-17.33 3.68 -17.66 2.36 -18 1 C-14.9890638 3.0072908 -14.36983503 3.83884224 -13 7 C-12.34 6.67 -11.68 6.34 -11 6 C-8.875 6.4375 -8.875 6.4375 -7 7 C-7 6.34 -7 5.68 -7 5 C-5.02 5 -3.04 5 -1 5 C-0.67 3.35 -0.34 1.7 0 0 Z " fill="#E1D3C8" transform="translate(128,50)"/>
<path d="M0 0 C0.99 0 1.98 0 3 0 C6 4.22222222 6 4.22222222 6 7 C6.66 7 7.32 7 8 7 C8 8.32 8 9.64 8 11 C5 12 5 12 2.984375 11.3515625 C0.50950185 9.66592055 -0.38700623 8.02526566 -1.75 5.375 C-2.17796875 4.55773438 -2.6059375 3.74046875 -3.046875 2.8984375 C-3.36140625 2.27195313 -3.6759375 1.64546875 -4 1 C-2.68 1.33 -1.36 1.66 0 2 C0 1.34 0 0.68 0 0 Z " fill="#F6ECC9" transform="translate(120,43)"/>
<path d="M0 0 C14.04230673 0.63828667 25.77886022 11.29353707 35 21 C34.67 21.66 34.34 22.32 34 23 C33.27296875 22.20335937 33.27296875 22.20335937 32.53125 21.390625 C28.56833352 17.21432071 25.08798846 14.20434262 19.82421875 11.8671875 C16.35557428 10.21828156 13.68971657 7.68971657 11 5 C9.14640431 4.23740958 7.26749402 3.53517233 5.375 2.875 C4.37210937 2.52179687 3.36921875 2.16859375 2.3359375 1.8046875 C1.56507812 1.53914063 0.79421875 1.27359375 0 1 C0 0.67 0 0.34 0 0 Z " fill="#E5A95A" transform="translate(89,16)"/>
<path d="M0 0 C4.64025315 0.46402531 7.93968326 1.88140222 11.984375 4.01953125 C14.88005444 5.4280885 17.89435088 6.17963986 21 7 C22.67632417 7.64199649 24.34750513 8.29894157 26 9 C26 9.33 26 9.66 26 10 C17.88997393 10.97320313 11.04659475 7.78363955 4 4 C1.578125 1.796875 1.578125 1.796875 0 0 Z " fill="#B8420B" transform="translate(40,124)"/>
<path d="M0 0 C1.64826111 2.96687001 2.44271087 5.65626525 3 9 C5.64 9.33 8.28 9.66 11 10 C11 10.66 11 11.32 11 12 C12.670625 12.4021875 12.670625 12.4021875 14.375 12.8125 C18 14 18 14 20 17 C18.68 17.99 17.36 18.98 16 20 C15.29875 19.236875 14.5975 18.47375 13.875 17.6875 C11.03647396 15.03409522 8.53050949 13.55999257 5 12 C5 11.34 5 10.68 5 10 C4.01 10 3.02 10 2 10 C0.39644899 6.49223216 -0.22036864 3.85645121 0 0 Z " fill="#D67B40" transform="translate(99,98)"/>
<path d="M0 0 C2.4375 1.1875 2.4375 1.1875 5 3 C5.8125 5.6875 5.8125 5.6875 6 8 C5.34 8 4.68 8 4 8 C4 8.99 4 9.98 4 11 C0.22454612 9.90931332 -2.47043472 9.0916909 -5 6 C-3.86695008 2.60085025 -2.87481525 1.94745549 0 0 Z " fill="#EBD098" transform="translate(96,37)"/>
<path d="M0 0 C0 1.98 0 3.96 0 6 C-3 6 -6 6 -9 6 C-9 5.34 -9 4.68 -9 4 C-11.33075929 4.95865509 -11.33075929 4.95865509 -13 8 C-13.33 7.01 -13.66 6.02 -14 5 C-15.65 5 -17.3 5 -19 5 C-19 4.67 -19 4.34 -19 4 C-16.02111319 3.33206142 -13.04191173 2.66558934 -10.0625 2 C-9.21236328 1.80921875 -8.36222656 1.6184375 -7.48632812 1.421875 C-6.67744141 1.24140625 -5.86855469 1.0609375 -5.03515625 0.875 C-4.2862915 0.70742188 -3.53742676 0.53984375 -2.76586914 0.3671875 C-1 0 -1 0 0 0 Z " fill="#CE8658" transform="translate(130,56)"/>
<path d="M0 0 C2.33944736 0.28730055 4.6739143 0.61936779 7 1 C7.93065133 3.60582371 8.14917407 4.64198224 7.0625 7.25 C6.711875 7.8275 6.36125 8.405 6 9 C4.68 7.68 3.36 6.36 2 5 C1.34 6.32 0.68 7.64 0 9 C-1.32 9 -2.64 9 -4 9 C-3.29975694 5.73219907 -2.42301753 2.42301753 0 0 Z " fill="#D58A4B" transform="translate(22,55)"/>
<path d="M0 0 C2 1 4 2 6 3 C6.33 2.34 6.66 1.68 7 1 C8.20572596 2.38012023 9.38905751 3.77982828 10.5625 5.1875 C11.22378906 5.96480469 11.88507813 6.74210937 12.56640625 7.54296875 C14 10 14 10 13.71484375 12.80078125 C13.47894531 13.52652344 13.24304688 14.25226562 13 15 C8.23436567 10.42499105 3.66740312 5.50110467 0 0 Z " fill="#F8EBA8" transform="translate(94,45)"/>
<path d="M0 0 C-2 2 -2 2 -4.5625 3.125 C-10.26964034 6.23798564 -15.38412512 10.57618769 -19 16 C-19.66 16 -20.32 16 -21 16 C-21 16.66 -21 17.32 -21 18 C-22.32 18.33 -23.64 18.66 -25 19 C-24.34 17.02 -23.68 15.04 -23 13 C-22.01 13 -21.02 13 -20 13 C-18.28641357 11.38161281 -16.6292274 9.70328319 -15 8 C-5.77339318 -0.31207531 -5.77339318 -0.31207531 0 0 Z " fill="#E86807" transform="translate(66,42)"/>
<path d="M0 0 C1.485 0.99 1.485 0.99 3 2 C4.03125 2.165 5.0625 2.33 6.125 2.5 C7.07375 2.665 8.0225 2.83 9 3 C9.33 3.66 9.66 4.32 10 5 C10.99 4.01 11.98 3.02 13 2 C12.67 4.64 12.34 7.28 12 10 C10.68 10.33 9.36 10.66 8 11 C7.1646875 9.576875 7.1646875 9.576875 6.3125 8.125 C3.93429698 4.91121213 2.75965574 4.04434882 -1 3 C-0.67 2.01 -0.34 1.02 0 0 Z " fill="#CD6428" transform="translate(107,58)"/>
<path d="M0 0 C2.475 0.99 2.475 0.99 5 2 C4.01 4.31 3.02 6.62 2 9 C-1.3 9 -4.6 9 -8 9 C-8.33 8.01 -8.66 7.02 -9 6 C-6.03 6.495 -6.03 6.495 -3 7 C-2.690625 6.030625 -2.38125 5.06125 -2.0625 4.0625 C-1 1 -1 1 0 0 Z " fill="#D99D55" transform="translate(39,52)"/>
<path d="M0 0 C-1.52240117 4.26272329 -4.03275246 5.98031034 -8 8 C-11.03378241 8.31674074 -13.96295955 8.24296324 -17 8 C-16.67 7.01 -16.34 6.02 -16 5 C-15.01 5.33 -14.02 5.66 -13 6 C-13 5.34 -13 4.68 -13 4 C-11.02 3.01 -9.04 2.02 -7 1 C-7 1.66 -7 2.32 -7 3 C-6.21625 2.505 -5.4325 2.01 -4.625 1.5 C-2 0 -2 0 0 0 Z " fill="#B73F09" transform="translate(113,121)"/>
<path d="M0 0 C0.33 0.66 0.66 1.32 1 2 C0.67 2.66 0.34 3.32 0 4 C0.99 4 1.98 4 3 4 C3 4.66 3 5.32 3 6 C4.32 6.33 5.64 6.66 7 7 C6.67 7.66 6.34 8.32 6 9 C5.01 8.67 4.02 8.34 3 8 C2.01 9.485 2.01 9.485 1 11 C-1.625 11.6875 -1.625 11.6875 -4 12 C-3.34 9.36 -2.68 6.72 -2 4 C-3.98 4 -5.96 4 -8 4 C-5.33333333 2.66666667 -2.66666667 1.33333333 0 0 Z " fill="#E0B46B" transform="translate(36,45)"/>
<path d="M0 0 C0 1.98 0 3.96 0 6 C-5.625 8.125 -5.625 8.125 -9 7 C-8.34 6.67 -7.68 6.34 -7 6 C-7.33 5.01 -7.66 4.02 -8 3 C-8.66 2.67 -9.32 2.34 -10 2 C-6.38026598 0.68373308 -3.90432869 0 0 0 Z " fill="#EDCC7A" transform="translate(66,19)"/>
<path d="M0 0 C0 6.27776643 -6.16400649 11.28151362 -10.375 15.5 C-11.57835226 16.6718037 -12.78488522 17.84039808 -14 19 C-14.33 18.01 -14.66 17.02 -15 16 C-14.55269531 15.57589844 -14.10539062 15.15179688 -13.64453125 14.71484375 C-10.54117376 11.7041238 -7.70300536 8.75823563 -5.25 5.1875 C-3 2 -3 2 0 0 Z " fill="#C94E10" transform="translate(128,104)"/>
<path d="M0 0 C1.62566606 0.47690204 3.25051311 0.95659666 4.875 1.4375 C5.77992187 1.70433594 6.68484375 1.97117187 7.6171875 2.24609375 C10 3 10 3 12 4 C12 4.99 12 5.98 12 7 C8.22134307 8.25955231 6.96588214 7.48087189 3.3125 6.0625 C2.31863281 5.68222656 1.32476562 5.30195313 0.30078125 4.91015625 C-0.83810547 4.45962891 -0.83810547 4.45962891 -2 4 C-1.01 3.34 -0.02 2.68 1 2 C0.67 1.34 0.34 0.68 0 0 Z " fill="#EDC784" transform="translate(87,21)"/>
<path d="M0 0 C0.33 0.66 0.66 1.32 1 2 C3.64 2 6.28 2 9 2 C5.77208445 4.1519437 4.71599191 4.20086443 1 4 C1.33 6.31 1.66 8.62 2 11 C1.01 10.67 0.02 10.34 -1 10 C-2.4477922 7.10441559 -3 5.25811062 -3 2 C-2.01 2 -1.02 2 0 2 C0 1.34 0 0.68 0 0 Z " fill="#D55F13" transform="translate(19,88)"/>
<path d="M0 0 C1.4540625 0.0309375 1.4540625 0.0309375 2.9375 0.0625 C-0.46962181 4.03747544 -4.39010855 5.93043788 -9.0625 8.0625 C-10.0525 7.0725 -11.0425 6.0825 -12.0625 5.0625 C-11.49660156 4.78535156 -10.93070312 4.50820312 -10.34765625 4.22265625 C-9.61417969 3.86042969 -8.88070312 3.49820313 -8.125 3.125 C-7.02865234 2.58552734 -7.02865234 2.58552734 -5.91015625 2.03515625 C-2.12662005 0.04340041 -2.12662005 0.04340041 0 0 Z " fill="#A53A11" transform="translate(99.0625,112.9375)"/>
<path d="M0 0 C0.66 0 1.32 0 2 0 C3.11823815 2.23647631 3.19396061 3.64891529 3.31640625 6.1328125 C3.35830078 6.93847656 3.40019531 7.74414062 3.44335938 8.57421875 C3.48267578 9.41597656 3.52199219 10.25773437 3.5625 11.125 C3.60568359 11.97449219 3.64886719 12.82398437 3.69335938 13.69921875 C3.79954236 15.79928223 3.90028497 17.89961948 4 20 C3.34 20.33 2.68 20.66 2 21 C1.76289191 18.62891908 1.52583569 16.25783315 1.2890625 13.88671875 C1.09738686 11.97255256 0.90468966 10.05848837 0.7109375 8.14453125 C0.62070313 7.25121094 0.53046875 6.35789062 0.4375 5.4375 C0.35371094 4.61121094 0.26992187 3.78492188 0.18359375 2.93359375 C0.09098089 1.95820296 0 0.97977769 0 0 Z " fill="#DB5B08" transform="translate(132,56)"/>
<path d="M0 0 C0.33 0.66 0.66 1.32 1 2 C3.02463255 2.65213292 3.02463255 2.65213292 5 3 C3.7260411 5.03833424 2.38938077 7.03852126 1 9 C0.34 9 -0.32 9 -1 9 C-1.66 10.98 -2.32 12.96 -3 15 C-4.43410153 11.21180727 -3.51009497 8.93478721 -2.0625 5.25 C-1.49208984 3.77273437 -1.49208984 3.77273437 -0.91015625 2.265625 C-0.60980469 1.51796875 -0.30945313 0.7703125 0 0 Z " fill="#DDB474" transform="translate(23,47)"/>
<path d="M0 0 C0.99 0 1.98 0 3 0 C3 0.66 3 1.32 3 2 C3.66 2 4.32 2 5 2 C5 2.66 5 3.32 5 4 C6.65 4 8.3 4 10 4 C10 4.66 10 5.32 10 6 C10.66 6.33 11.32 6.66 12 7 C10.35 7.33 8.7 7.66 7 8 C6.67 7.34 6.34 6.68 6 6 C2.44219804 6.60990891 -0.6828589 7.5783681 -4 9 C-2.33333333 7.33333333 -0.66666667 5.66666667 1 4 C0.34 3.67 -0.32 3.34 -1 3 C-0.67 2.01 -0.34 1.02 0 0 Z " fill="#EED682" transform="translate(55,34)"/>
<path d="M0 0 C0.53625 0.2475 1.0725 0.495 1.625 0.75 C1 2.625 1 2.625 -0.375 4.75 C-3.5 6 -3.5 6 -6.375 6.75 C-7.035 5.76 -7.695 4.77 -8.375 3.75 C-2.95961538 -0.31153846 -2.95961538 -0.31153846 0 0 Z " fill="#F7ED90" transform="translate(60.375,39.25)"/>
<path d="M0 0 C2.1519437 3.22791555 2.20086443 4.28400809 2 8 C0.54735962 8.8638129 -0.9123163 9.71580454 -2.375 10.5625 C-3.59316406 11.27599609 -3.59316406 11.27599609 -4.8359375 12.00390625 C-5.55007812 12.33261719 -6.26421875 12.66132812 -7 13 C-7.66 12.67 -8.32 12.34 -9 12 C-7.71034824 10.62437146 -6.37310707 9.29233607 -5 8 C-4.34 8 -3.68 8 -3 8 C-2.67 6.68 -2.34 5.36 -2 4 C-1.34 4 -0.68 4 0 4 C0 2.68 0 1.36 0 0 Z " fill="#D0855B" transform="translate(46,92)"/>
<path d="M0 0 C0.33 0.66 0.66 1.32 1 2 C2.32 2 3.64 2 5 2 C5.33 3.32 5.66 4.64 6 6 C6.66 6 7.32 6 8 6 C7.67 6.66 7.34 7.32 7 8 C5.68 8 4.36 8 3 8 C3 7.01 3 6.02 3 5 C0.36 5 -2.28 5 -5 5 C-4.67 4.34 -4.34 3.68 -4 3 C-3.01 3 -2.02 3 -1 3 C-0.67 2.01 -0.34 1.02 0 0 Z " fill="#C18163" transform="translate(108,89)"/>
<path d="M0 0 C-1.31625194 3.94875582 -3.05365398 4.54992713 -6.5625 6.6875 C-7.57441406 7.31011719 -8.58632813 7.93273437 -9.62890625 8.57421875 C-10.41136719 9.04472656 -11.19382812 9.51523438 -12 10 C-12.66 9.34 -13.32 8.68 -14 8 C-13.34 7.67 -12.68 7.34 -12 7 C-11.34 6.01 -10.68 5.02 -10 4 C-8.125 2.83203125 -8.125 2.83203125 -6 1.8125 C-5.29875 1.46832031 -4.5975 1.12414062 -3.875 0.76953125 C-2 0 -2 0 0 0 Z " fill="#DCAC88" transform="translate(41,100)"/>
<path d="M0 0 C0.33 0 0.66 0 1 0 C2.7578125 5.95703125 2.7578125 5.95703125 3 8 C2.01 9.485 2.01 9.485 1 11 C0.61500109 12.65549531 0.27206865 14.3222433 0 16 C-0.66 16 -1.32 16 -2 16 C-2.20674944 10.21101581 -1.59162079 5.57067277 0 0 Z " fill="#DF7D18" transform="translate(15,60)"/>
<path d="M0 0 C0.33 0 0.66 0 1 0 C1.02689216 1.47906892 1.04634621 2.95827483 1.0625 4.4375 C1.07410156 5.26121094 1.08570313 6.08492187 1.09765625 6.93359375 C1 9 1 9 0 10 C-1.66617115 10.04063832 -3.33388095 10.042721 -5 10 C-5 10.66 -5 11.32 -5 12 C-5.66 12 -6.32 12 -7 12 C-7.33 10.68 -7.66 9.36 -8 8 C-7.34 8 -6.68 8 -6 8 C-5.67 7.34 -5.34 6.68 -5 6 C-3.35 6.33 -1.7 6.66 0 7 C0 4.69 0 2.38 0 0 Z " fill="#D06D2B" transform="translate(130,55)"/>
<path d="M0 0 C0.33 0.99 0.66 1.98 1 3 C-0.4375 5.6875 -0.4375 5.6875 -2 8 C-0.35 7.67 1.3 7.34 3 7 C3 7.99 3 8.98 3 10 C0.36 10.33 -2.28 10.66 -5 11 C-4.46884894 6.48521602 -2.63379708 3.65333143 0 0 Z " fill="#E4C673" transform="translate(29,38)"/>
<path d="M0 0 C1.03447266 0.42539062 1.03447266 0.42539062 2.08984375 0.859375 C2.78207031 1.13265625 3.47429687 1.4059375 4.1875 1.6875 C6.02734375 2.609375 6.02734375 2.609375 8.02734375 4.609375 C7.03734375 4.609375 6.04734375 4.609375 5.02734375 4.609375 C5.35734375 5.599375 5.68734375 6.589375 6.02734375 7.609375 C5.03734375 7.939375 4.04734375 8.269375 3.02734375 8.609375 C2.36734375 7.949375 1.70734375 7.289375 1.02734375 6.609375 C2.01734375 6.609375 3.00734375 6.609375 4.02734375 6.609375 C2.72210475 3.99889699 1.66907801 3.92871077 -1.03515625 2.984375 C-1.76863281 2.72398438 -2.50210938 2.46359375 -3.2578125 2.1953125 C-3.82371094 2.00195312 -4.38960938 1.80859375 -4.97265625 1.609375 C-1.97265625 -0.390625 -1.97265625 -0.390625 0 0 Z " fill="#E9B672" transform="translate(86.97265625,35.390625)"/>
<path d="M0 0 C0 4.33475276 -2.07918744 6.89613924 -5 10 C-8.38835645 11.29080246 -9.54017144 11.15327619 -13 10 C-12.48050781 9.69707031 -11.96101563 9.39414063 -11.42578125 9.08203125 C-7.02175659 6.43636024 -3.46723222 3.79228524 0 0 Z " fill="#C43E02" transform="translate(100,95)"/>
<path d="M0 0 C0.66 0 1.32 0 2 0 C2.33 2.31 2.66 4.62 3 7 C1.68 7.99 0.36 8.98 -1 10 C-1 9.34 -1 8.68 -1 8 C-2.65 8 -4.3 8 -6 8 C-4.68 7.01 -3.36 6.02 -2 5 C-2.33 4.34 -2.66 3.68 -3 3 C-2.01 3 -1.02 3 0 3 C0 2.01 0 1.02 0 0 Z " fill="#E7B65F" transform="translate(66,30)"/>
<path d="M0 0 C0.66 0.33 1.32 0.66 2 1 C2.625 3.5625 2.625 3.5625 3 6 C3.99 6 4.98 6 6 6 C6 6.66 6 7.32 6 8 C8.475 8.99 8.475 8.99 11 10 C9.02 10.99 9.02 10.99 7 12 C5.5 10.625 5.5 10.625 4 9 C4 8.34 4 7.68 4 7 C3.01 7 2.02 7 1 7 C-0.0625 4.625 -0.0625 4.625 -1 2 C-0.67 1.34 -0.34 0.68 0 0 Z " fill="#C9632A" transform="translate(98,102)"/>
<path d="M0 0 C2.97 0.99 5.94 1.98 9 3 C9 3.99 9 4.98 9 6 C6.75 6.75 6.75 6.75 4 7 C1.6875 5.25 1.6875 5.25 0 3 C0 2.01 0 1.02 0 0 Z " fill="#D77D47" transform="translate(117,96)"/>
<path d="M0 0 C-0.33 1.98 -0.66 3.96 -1 6 C-1.66 6 -2.32 6 -3 6 C-3.66 6.66 -4.32 7.32 -5 8 C-9.875 4.375 -9.875 4.375 -11 1 C-9.0625 1.375 -9.0625 1.375 -7 2 C-6.67 2.66 -6.34 3.32 -6 4 C-5.38125 3.34 -4.7625 2.68 -4.125 2 C-2 0 -2 0 0 0 Z " fill="#CD7E53" transform="translate(31,91)"/>
<path d="M0 0 C0.61875 0.33 1.2375 0.66 1.875 1 C3.91018344 2.14193235 3.91018344 2.14193235 6 2 C7.33783393 2.31478446 8.67203709 2.64587656 10 3 C9.01 3.495 9.01 3.495 8 4 C8 4.66 8 5.32 8 6 C7.01 6 6.02 6 5 6 C4.67 6.66 4.34 7.32 4 8 C0 3.375 0 3.375 0 0 Z " fill="#F5E9A7" transform="translate(112,39)"/>
<path d="M0 0 C-1.46218487 4.6302521 -1.46218487 4.6302521 -4 6.375 C-6 7 -6 7 -8 6 C-6.15596224 0.86303767 -5.73213298 0 0 0 Z " fill="#DEB58F" transform="translate(125,105)"/>
<path d="M0 0 C0.66 0.33 1.32 0.66 2 1 C3.25541557 4.76624671 2.37061958 6.37188934 1 10 C1.99 10.33 2.98 10.66 4 11 C2.35 11.33 0.7 11.66 -1 12 C-1.02698189 10.37509046 -1.04638757 8.75005367 -1.0625 7.125 C-1.07410156 6.22007813 -1.08570313 5.31515625 -1.09765625 4.3828125 C-1 2 -1 2 0 0 Z " fill="#E36E0E" transform="translate(17,54)"/>
<path d="M0 0 C1.32 0.33 2.64 0.66 4 1 C4 2.65 4 4.3 4 6 C3.34 6 2.68 6 2 6 C1.67 7.32 1.34 8.64 1 10 C0.01 10 -0.98 10 -2 10 C-2 9.34 -2 8.68 -2 8 C-1.34 7.67 -0.68 7.34 0 7 C-0.2784375 5.824375 -0.2784375 5.824375 -0.5625 4.625 C-1 2 -1 2 0 0 Z " fill="#DEBAA1" transform="translate(42,90)"/>
<path d="M0 0 C1.65 0 3.3 0 5 0 C4.01 0.33 3.02 0.66 2 1 C2.7425 2.1446875 2.7425 2.1446875 3.5 3.3125 C5 6 5 6 5 9 C3.35 9.33 1.7 9.66 0 10 C0 6.7 0 3.4 0 0 Z " fill="#E5AD63" transform="translate(84,18)"/>
<path d="M0 0 C3.26954202 0.56371414 4.82575883 1.49962266 7 4 C6.67 4.66 6.34 5.32 6 6 C5.34 5.67 4.68 5.34 4 5 C3.67 5.66 3.34 6.32 3 7 C1.68 5.68 0.36 4.36 -1 3 C-0.67 2.01 -0.34 1.02 0 0 Z " fill="#F7EED0" transform="translate(105,43)"/>
<path d="M0 0 C0.99 0.99 1.98 1.98 3 3 C2.67 3.99 2.34 4.98 2 6 C1.34 6 0.68 6 0 6 C-0.66 7.32 -1.32 8.64 -2 10 C-2.66 8.68 -3.32 7.36 -4 6 C-3.34 5.67 -2.68 5.34 -2 5 C-1.27840576 3.35636866 -0.60648579 1.68949614 0 0 Z " fill="#E4CCBA" transform="translate(40,92)"/>
<path d="M0 0 C0.73046875 1.84765625 0.73046875 1.84765625 1.1875 4.0625 C1.34605469 4.79597656 1.50460938 5.52945313 1.66796875 6.28515625 C1.83232422 7.13400391 1.83232422 7.13400391 2 8 C0.68 7.67 -0.64 7.34 -2 7 C-2 6.01 -2 5.02 -2 4 C-3.9375006 1.81222534 -3.9375006 1.81222534 -6 0 C-3 -1 -3 -1 0 0 Z " fill="#F1DFAD" transform="translate(102,36)"/>
<path d="M0 0 C0.33 0.66 0.66 1.32 1 2 C2.134375 2.309375 3.26875 2.61875 4.4375 2.9375 C8 4 8 4 10 7 C5.86021808 7 5.01426496 6.67617664 1.75 4.5 C1.04359375 4.0359375 0.3371875 3.571875 -0.390625 3.09375 C-0.92171875 2.7328125 -1.4528125 2.371875 -2 2 C-1.34 1.34 -0.68 0.68 0 0 Z " fill="#DB894F" transform="translate(109,108)"/>
<path d="M0 0 C0.99 0 1.98 0 3 0 C3.33 1.32 3.66 2.64 4 4 C0.7 4 -2.6 4 -6 4 C-6.33 3.01 -6.66 2.02 -7 1 C-5.5459375 1.0309375 -5.5459375 1.0309375 -4.0625 1.0625 C-1.12534105 1.35618499 -1.12534105 1.35618499 0 0 Z " fill="#D18141" transform="translate(37,57)"/>
<path d="M0 0 C1.48206495 0.254496 2.96068615 0.52911762 4.4375 0.8125 C5.67306641 1.03873047 5.67306641 1.03873047 6.93359375 1.26953125 C7.95646484 1.63111328 7.95646484 1.63111328 9 2 C9.33 2.99 9.66 3.98 10 5 C6.25 6.125 6.25 6.125 4 5 C4 4.34 4 3.68 4 3 C2.68 2.34 1.36 1.68 0 1 C0 0.67 0 0.34 0 0 Z " fill="#EE6F0C" transform="translate(81,37)"/>
<path d="M0 0 C2.0625 0.4375 2.0625 0.4375 4 1 C3.01 1.33 2.02 1.66 1 2 C0.67 2.66 0.34 3.32 0 4 C-0.66 4 -1.32 4 -2 4 C-2.66 4.66 -3.32 5.32 -4 6 C-4.66 5.67 -5.32 5.34 -6 5 C-6 3.68 -6 2.36 -6 1 C-4.7934375 1.0309375 -4.7934375 1.0309375 -3.5625 1.0625 C-1.06645115 1.29633621 -1.06645115 1.29633621 0 0 Z " fill="#C08063" transform="translate(41,88)"/>
<path d="M0 0 C1.65 1.32 3.3 2.64 5 4 C4.67 5.32 4.34 6.64 4 8 C3.34 8 2.68 8 2 8 C1.67 7.34 1.34 6.68 1 6 C0.01 6 -0.98 6 -2 6 C-1.34 4.02 -0.68 2.04 0 0 Z " fill="#D16920" transform="translate(24,59)"/>
<path d="M0 0 C0.33 0.66 0.66 1.32 1 2 C2.918125 1.690625 2.918125 1.690625 4.875 1.375 C7.0546875 1.0234375 7.0546875 1.0234375 9 1 C9.66 1.66 10.32 2.32 11 3 C7.37 3.66 3.74 4.32 0 5 C-0.33 3.68 -0.66 2.36 -1 1 C-0.67 0.67 -0.34 0.34 0 0 Z " fill="#CC5F22" transform="translate(30,59)"/>
<path d="M0 0 C2.51103257 0.37454477 3.67649351 0.58363516 5.265625 2.62890625 C6.17708333 4.41927083 7.08854167 6.20963542 8 8 C7.01 8 6.02 8 5 8 C3.61328125 6.25 3.61328125 6.25 2.3125 4 C1.87550781 3.2575 1.43851562 2.515 0.98828125 1.75 C0.66214844 1.1725 0.33601563 0.595 0 0 Z " fill="#F0E8D6" transform="translate(102,47)"/>
<path d="M0 0 C0.66 0.33 1.32 0.66 2 1 C0.35 2.98 -1.3 4.96 -3 7 C-3.99 6.67 -4.98 6.34 -6 6 C-6 5.34 -6 4.68 -6 4 C-4.03852126 2.61061923 -2.03833424 1.2739589 0 0 Z " fill="#D2753A" transform="translate(35,105)"/>
<path d="M0 0 C2 3 2 3 1.625 5.1875 C1.41875 5.785625 1.2125 6.38375 1 7 C-1.64 7.33 -4.28 7.66 -7 8 C-7 7.01 -7 6.02 -7 5 C-5.02 5 -3.04 5 -1 5 C-0.67 3.35 -0.34 1.7 0 0 Z " fill="#E1C4A1" transform="translate(128,50)"/>
<path d="M0 0 C0.99 0.495 0.99 0.495 2 1 C2 1.66 2 2.32 2 3 C2.99 3.33 3.98 3.66 5 4 C5 4.66 5 5.32 5 6 C5.66 6.33 6.32 6.66 7 7 C5.02 7 3.04 7 1 7 C0.67 4.69 0.34 2.38 0 0 Z " fill="#D39673" transform="translate(21,94)"/>
<path d="M0 0 C5.53846154 -0.36923077 5.53846154 -0.36923077 7.875 1.5 C8.24625 1.995 8.6175 2.49 9 3 C5.23375329 4.25541557 3.62811066 3.37061958 0 2 C0 1.34 0 0.68 0 0 Z " fill="#E9CC8F" transform="translate(86,19)"/>
<path d="M0 0 C0.66 0 1.32 0 2 0 C2.33 1.65 2.66 3.3 3 5 C3.61875 4.79375 4.2375 4.5875 4.875 4.375 C5.57625 4.25125 6.2775 4.1275 7 4 C9 6 9 6 9 8 C5.625 7.375 5.625 7.375 2 6 C0.5625 2.875 0.5625 2.875 0 0 Z " fill="#DFA272" transform="translate(100,101)"/>
<path d="M0 0 C1.89213369 2.38573379 3.02391783 4.07175348 4 7 C3.34 7.66 2.68 8.32 2 9 C0.68 6.36 -0.64 3.72 -2 1 C-1.34 0.67 -0.68 0.34 0 0 Z " fill="#CF6628" transform="translate(21,98)"/>
<path d="M0 0 C0 1.98 0 3.96 0 6 C-0.33 5.01 -0.66 4.02 -1 3 C-2.11375 3.309375 -2.11375 3.309375 -3.25 3.625 C-6.37796068 4.05154009 -7.32595741 3.49700675 -10 2 C-8.52112267 1.66538533 -7.04188942 1.33234333 -5.5625 1 C-4.32693359 0.7215625 -4.32693359 0.7215625 -3.06640625 0.4375 C-1 0 -1 0 0 0 Z " fill="#D39363" transform="translate(130,56)"/>
<path d="M0 0 C1.32 0.33 2.64 0.66 4 1 C4.625 3.375 4.625 3.375 5 6 C4.34 6.66 3.68 7.32 3 8 C2.01 5.36 1.02 2.72 0 0 Z " fill="#F8DC95" transform="translate(103,52)"/>
<path d="M0 0 C0.99 0 1.98 0 3 0 C2.625 1.9375 2.625 1.9375 2 4 C1.01 4.495 1.01 4.495 0 5 C-0.99 4.67 -1.98 4.34 -3 4 C-3.33 3.01 -3.66 2.02 -4 1 C-2.68 1.33 -1.36 1.66 0 2 C0 1.34 0 0.68 0 0 Z " fill="#F8EEB8" transform="translate(120,43)"/>
<path d="M0 0 C3.25543229 0.34879632 4.01873107 1.02133261 6.25 3.5625 C6.8275 4.366875 7.405 5.17125 8 6 C5.69 5.34 3.38 4.68 1 4 C0.67 2.68 0.34 1.36 0 0 Z " fill="#F4E9BB" transform="translate(108,41)"/>
<path d="M0 0 C1.65 0 3.3 0 5 0 C5.33 0.66 5.66 1.32 6 2 C5.01 2.33 4.02 2.66 3 3 C3.33 3.66 3.66 4.32 4 5 C3.01 5.33 2.02 5.66 1 6 C0.34 5.01 -0.32 4.02 -1 3 C-0.67 2.01 -0.34 1.02 0 0 Z " fill="#F1CC86" transform="translate(92,40)"/>
<path d="M0 0 C0.391875 0.474375 0.78375 0.94875 1.1875 1.4375 C3.40808374 3.35179633 5.13375709 3.61266988 8 4 C8 4.33 8 4.66 8 5 C4.625 5.625 4.625 5.625 1 6 C0.34 5.34 -0.32 4.68 -1 4 C-0.625 1.875 -0.625 1.875 0 0 Z " fill="#D9C0AD" transform="translate(109,55)"/>
<path d="M0 0 C1.2065625 0.0309375 1.2065625 0.0309375 2.4375 0.0625 C1.7775 1.3825 1.1175 2.7025 0.4375 4.0625 C-0.5525 4.0625 -1.5425 4.0625 -2.5625 4.0625 C-3.5525 4.3925 -4.5425 4.7225 -5.5625 5.0625 C-3.15007962 0.07683121 -3.15007962 0.07683121 0 0 Z " fill="#BD4F16" transform="translate(105.5625,112.9375)"/>
<path d="M0 0 C0 3.99904969 -1.72586967 5.80200422 -4 9 C-4.66 8.67 -5.32 8.34 -6 8 C-3.375 2.25 -3.375 2.25 0 0 Z " fill="#D0763A" transform="translate(128,104)"/>
<path d="M0 0 C1.0625 1.875 1.0625 1.875 2 4 C1.67 4.66 1.34 5.32 1 6 C0.01 6 -0.98 6 -2 6 C-2.33 4.68 -2.66 3.36 -3 2 C-2.01 1.34 -1.02 0.68 0 0 Z " fill="#C4714A" transform="translate(34,89)"/>
<path d="M0 0 C0.99 0.33 1.98 0.66 3 1 C-0.465 3.97 -0.465 3.97 -4 7 C-3.04065919 3.16263678 -2.76390737 2.40339772 0 0 Z " fill="#F1F6F6" transform="translate(64,60)"/>
<path d="M0 0 C1.32 0.33 2.64 0.66 4 1 C4.33 2.65 4.66 4.3 5 6 C4.01 6.495 4.01 6.495 3 7 C0 2.25 0 2.25 0 0 Z " fill="#CF7A3C" transform="translate(24,57)"/>
<path d="M0 0 C0.66 0.33 1.32 0.66 2 1 C1.67 2.65 1.34 4.3 1 6 C-0.32 6.33 -1.64 6.66 -3 7 C-1.125 1.125 -1.125 1.125 0 0 Z " fill="#E96E11" transform="translate(44,54)"/>
<path d="M0 0 C2.31 0.33 4.62 0.66 7 1 C7 1.99 7 2.98 7 4 C4.69 3.34 2.38 2.68 0 2 C0 1.34 0 0.68 0 0 Z " fill="#EEC376" transform="translate(92,24)"/>
<path d="M0 0 C0.66 0.33 1.32 0.66 2 1 C-0.97 2.65 -3.94 4.3 -7 6 C-7 5.01 -7 4.02 -7 3 C-4.69631264 1.93347808 -2.35981813 0.93578995 0 0 Z " fill="#9F320B" transform="translate(97,115)"/>
<path d="M0 0 C1.98 0.495 1.98 0.495 4 1 C3.34 2.32 2.68 3.64 2 5 C1.01 4.34 0.02 3.68 -1 3 C-0.67 2.01 -0.34 1.02 0 0 Z " fill="#ABACAC" transform="translate(74,73)"/>
<path d="M0 0 C2.4375 0.75 2.4375 0.75 5 2 C5.8125 4.125 5.8125 4.125 6 6 C3.37812506 4.95125002 2.20628639 4.35068687 0.75 1.875 C0.5025 1.25625 0.255 0.6375 0 0 Z " fill="#F9DF92" transform="translate(94,42)"/>
</svg>
